<svg xmlns="http://www.w3.org/2000/svg" xmlns:xlink="http://www.w3.org/1999/xlink" zoomAndPan="magnify" preserveAspectRatio="xMidYMid meet" version="1.0" viewBox="107.4 100.47 160.33 133.75"><defs fill="#000000"><g/><clipPath id="18f781a342" fill="#000000"><path d="M 107.320312 100.390625 L 267.679688 100.390625 L 267.679688 169 L 107.320312 169 Z M 107.320312 100.390625 " clip-rule="nonzero" fill="#000000"/></clipPath><clipPath id="6e4e44c88c" fill="#000000"><path d="M 108 171 L 267.679688 171 L 267.679688 180 L 108 180 Z M 108 171 " clip-rule="nonzero" fill="#000000"/></clipPath><clipPath id="c21255e58e" fill="#000000"><path d="M 108 183 L 267.679688 183 L 267.679688 190.390625 L 108 190.390625 Z M 108 183 " clip-rule="nonzero" fill="#000000"/></clipPath></defs><path fill="#000000" d="M 242.652344 140.558594 C 242.652344 144.691406 239.273438 148.070312 235.140625 148.070312 C 231.007812 148.070312 227.628906 144.691406 227.628906 140.558594 C 227.628906 136.425781 231.007812 133.046875 235.140625 133.046875 C 239.273438 133.046875 242.652344 136.425781 242.652344 140.558594 Z M 232.636719 140.558594 C 232.636719 141.933594 233.765625 143.0625 235.140625 143.0625 C 236.519531 143.0625 237.644531 141.933594 237.644531 140.558594 C 237.644531 139.179688 236.519531 138.054688 235.140625 138.054688 C 233.765625 138.054688 232.636719 139.179688 232.636719 140.558594 Z M 232.636719 140.558594 " fill-opacity="1" fill-rule="nonzero"/><path fill="#000000" d="M 192.570312 156.835938 C 192.570312 157.167969 192.632812 157.484375 192.761719 157.792969 C 192.886719 158.101562 193.070312 158.371094 193.304688 158.605469 C 193.539062 158.839844 193.808594 159.019531 194.117188 159.148438 C 194.421875 159.273438 194.742188 159.339844 195.074219 159.339844 C 195.40625 159.339844 195.726562 159.273438 196.03125 159.148438 C 196.339844 159.019531 196.609375 158.839844 196.84375 158.605469 C 197.082031 158.371094 197.261719 158.101562 197.386719 157.792969 C 197.515625 157.484375 197.578125 157.167969 197.578125 156.835938 C 197.578125 156.503906 197.515625 156.183594 197.386719 155.875 C 197.261719 155.570312 197.082031 155.296875 196.84375 155.0625 C 196.609375 154.828125 196.339844 154.648438 196.03125 154.519531 C 195.726562 154.394531 195.40625 154.332031 195.074219 154.332031 C 194.742188 154.332031 194.421875 154.394531 194.117188 154.519531 C 193.808594 154.648438 193.539062 154.828125 193.304688 155.0625 C 193.070312 155.296875 192.886719 155.570312 192.761719 155.875 C 192.632812 156.183594 192.570312 156.503906 192.570312 156.835938 Z M 192.570312 156.835938 " fill-opacity="1" fill-rule="nonzero"/><path fill="#000000" d="M 177.546875 159.339844 C 177.546875 159.671875 177.609375 159.988281 177.738281 160.296875 C 177.863281 160.605469 178.042969 160.875 178.28125 161.109375 C 178.515625 161.34375 178.785156 161.523438 179.089844 161.652344 C 179.398438 161.777344 179.71875 161.84375 180.050781 161.84375 C 180.382812 161.84375 180.703125 161.777344 181.007812 161.652344 C 181.316406 161.523438 181.585938 161.34375 181.820312 161.109375 C 182.054688 160.875 182.238281 160.605469 182.363281 160.296875 C 182.492188 159.988281 182.554688 159.671875 182.554688 159.339844 C 182.554688 159.007812 182.492188 158.6875 182.363281 158.378906 C 182.238281 158.074219 182.054688 157.804688 181.820312 157.566406 C 181.585938 157.332031 181.316406 157.152344 181.007812 157.023438 C 180.703125 156.898438 180.382812 156.835938 180.050781 156.835938 C 179.71875 156.835938 179.398438 156.898438 179.089844 157.023438 C 178.785156 157.152344 178.515625 157.332031 178.28125 157.566406 C 178.042969 157.804688 177.863281 158.074219 177.738281 158.378906 C 177.609375 158.6875 177.546875 159.007812 177.546875 159.339844 Z M 177.546875 159.339844 " fill-opacity="1" fill-rule="nonzero"/><g clip-path="url(#18f781a342)"><path fill="#000000" d="M 108.429688 158.085938 C 108.683594 157.335938 109.308594 156.835938 109.933594 156.585938 L 114.941406 154.832031 L 114.941406 143.0625 C 114.941406 142.183594 115.316406 141.433594 116.070312 140.933594 L 119.949219 138.429688 L 119.949219 133.046875 C 119.949219 131.667969 121.078125 130.542969 122.453125 130.542969 C 123.832031 130.542969 124.957031 131.667969 124.957031 133.046875 L 124.957031 135.171875 L 129.589844 132.167969 C 129.96875 131.917969 130.46875 131.792969 130.96875 131.792969 L 147.496094 131.792969 L 147.496094 109.507812 C 147.496094 108.503906 148.121094 107.503906 149.125 107.128906 L 167.152344 100.742188 C 167.402344 100.492188 167.78125 100.492188 168.03125 100.492188 L 182.554688 100.617188 C 183.929688 100.617188 185.058594 101.742188 185.058594 103.121094 L 185.058594 112.511719 L 180.050781 112.511719 L 180.050781 105.625 L 170.035156 105.625 L 170.035156 114.890625 L 165.023438 116.644531 L 165.023438 106.75 L 152.503906 111.257812 L 152.503906 142.183594 L 157.511719 140.433594 L 157.511719 127.035156 C 157.511719 126.035156 158.140625 125.03125 159.140625 124.65625 L 177.171875 118.269531 C 177.421875 118.019531 177.796875 118.019531 178.046875 118.019531 L 192.570312 118.144531 C 193.949219 118.144531 195.074219 119.273438 195.074219 120.648438 L 195.074219 127.660156 L 200.082031 125.910156 L 200.082031 110.382812 C 200.082031 109.257812 200.710938 108.378906 201.835938 108.003906 L 219.867188 101.867188 C 219.992188 101.742188 220.242188 101.742188 220.617188 101.742188 L 235.140625 101.867188 C 236.519531 101.867188 237.644531 102.996094 237.644531 104.371094 L 237.644531 118.019531 C 254.796875 115.890625 263.5625 117.144531 264.1875 117.144531 C 265.816406 117.394531 267.820312 117.769531 267.695312 119.898438 C 267.695312 121.152344 266.691406 145.816406 250.792969 166.976562 C 249.914062 166.851562 248.914062 166.726562 247.914062 166.726562 C 246.535156 166.726562 245.28125 166.851562 244.28125 167.101562 C 258.679688 150.074219 261.808594 128.914062 262.5625 122.027344 C 258.429688 121.652344 239.523438 120.648438 206.59375 129.039062 L 112.8125 160.964844 C 112.4375 162.46875 112.4375 163.972656 112.5625 165.472656 L 206.84375 135.675781 C 208.222656 135.300781 209.597656 136.050781 209.972656 137.300781 C 210.351562 138.679688 209.597656 140.058594 208.347656 140.433594 L 117.820312 168.980469 C 116.445312 168.101562 114.066406 166.851562 110.183594 166.851562 C 109.308594 166.851562 108.429688 166.851562 107.679688 167.226562 C 107.179688 164.347656 107.304688 161.214844 108.429688 158.085938 Z M 222.621094 120.273438 C 226.125 119.648438 229.507812 119.023438 232.636719 118.644531 L 232.636719 106.875 L 222.621094 106.875 Z M 205.089844 124.28125 C 205.089844 124.28125 205.214844 124.28125 205.214844 124.28125 C 209.597656 123.152344 213.730469 122.152344 217.613281 121.402344 L 217.613281 107.878906 L 205.089844 112.136719 Z M 180.050781 132.792969 L 190.066406 129.414062 L 190.066406 123.152344 L 180.050781 123.152344 Z M 162.519531 138.679688 L 175.042969 134.421875 L 175.042969 124.28125 L 162.519531 128.789062 Z M 133.722656 148.570312 L 147.496094 143.9375 L 147.496094 136.800781 L 133.722656 136.800781 Z M 119.949219 153.203125 L 128.714844 150.199219 C 128.714844 150.074219 128.714844 138.679688 128.714844 138.679688 L 119.949219 144.4375 Z M 119.949219 153.203125 " fill-opacity="1" fill-rule="nonzero"/></g><g clip-path="url(#6e4e44c88c)"><path fill="#000000" d="M 109.933594 171.859375 C 112.8125 171.859375 114.316406 172.734375 115.570312 173.488281 C 116.570312 173.988281 117.195312 174.363281 118.574219 174.363281 C 120.074219 174.363281 120.703125 173.988281 121.578125 173.488281 C 122.832031 172.734375 124.332031 171.859375 127.210938 171.859375 C 130.09375 171.859375 131.59375 172.734375 132.847656 173.488281 C 133.847656 173.988281 134.476562 174.363281 135.851562 174.363281 C 137.355469 174.363281 137.980469 173.988281 138.855469 173.488281 C 140.109375 172.734375 141.613281 171.859375 144.367188 171.859375 C 147.246094 171.859375 148.75 172.734375 149.875 173.488281 C 151.003906 173.988281 151.628906 174.363281 153.128906 174.363281 C 154.632812 174.363281 155.257812 173.988281 156.136719 173.488281 C 157.386719 172.734375 158.890625 171.859375 161.644531 171.859375 C 164.523438 171.859375 166.027344 172.734375 167.152344 173.488281 C 168.15625 173.988281 168.78125 174.363281 170.160156 174.363281 C 171.660156 174.363281 172.289062 173.988281 173.164062 173.488281 C 174.414062 172.734375 175.917969 171.859375 178.671875 171.859375 C 181.550781 171.859375 183.054688 172.734375 184.183594 173.488281 C 185.183594 173.988281 185.808594 174.363281 187.1875 174.363281 C 188.6875 174.363281 189.316406 173.988281 190.191406 173.488281 C 191.445312 172.734375 192.945312 171.859375 195.699219 171.859375 C 198.582031 171.859375 200.082031 172.734375 201.210938 173.488281 C 202.210938 173.988281 202.835938 174.363281 204.214844 174.363281 C 205.71875 174.363281 206.34375 173.988281 207.21875 173.488281 C 208.472656 172.734375 209.972656 171.859375 212.730469 171.859375 C 215.609375 171.859375 217.109375 172.734375 218.238281 173.488281 C 219.238281 173.988281 219.867188 174.363281 221.242188 174.363281 C 222.746094 174.363281 223.371094 173.988281 224.25 173.488281 C 225.5 172.734375 227.003906 171.859375 229.757812 171.859375 C 232.511719 171.859375 234.140625 172.734375 235.265625 173.488281 C 236.269531 173.988281 236.894531 174.363281 238.269531 174.363281 C 239.773438 174.363281 240.398438 173.988281 241.277344 173.488281 C 242.527344 172.734375 244.03125 171.859375 246.785156 171.859375 C 249.664062 171.859375 251.167969 172.734375 252.292969 173.488281 C 254.421875 173.988281 255.050781 174.363281 256.550781 174.363281 C 258.054688 174.363281 258.679688 173.988281 259.554688 173.488281 C 260.808594 172.734375 262.3125 171.859375 265.191406 171.859375 C 266.566406 171.859375 267.695312 172.984375 267.695312 174.363281 C 267.695312 175.742188 266.566406 176.867188 265.191406 176.867188 C 263.6875 176.867188 263.0625 177.242188 262.1875 177.742188 C 260.933594 178.496094 259.429688 179.371094 256.675781 179.371094 C 253.796875 179.371094 252.292969 178.496094 251.167969 177.742188 C 250.164062 177.242188 249.539062 176.867188 248.164062 176.867188 C 246.660156 176.867188 246.035156 177.242188 245.15625 177.742188 C 243.90625 178.496094 242.402344 179.371094 239.648438 179.371094 C 236.894531 179.371094 235.265625 178.496094 234.140625 177.742188 C 233.136719 177.242188 232.511719 176.867188 231.132812 176.867188 C 229.632812 176.867188 229.007812 177.242188 228.128906 177.742188 C 226.878906 178.496094 225.375 179.371094 222.621094 179.371094 C 219.742188 179.371094 218.238281 178.496094 217.109375 177.742188 C 216.109375 177.242188 215.484375 176.867188 214.105469 176.867188 C 212.605469 176.867188 211.976562 177.242188 211.101562 177.742188 C 209.847656 178.496094 208.347656 179.371094 205.59375 179.371094 C 202.710938 179.371094 201.210938 178.496094 200.082031 177.742188 C 199.082031 177.242188 198.457031 176.867188 197.078125 176.867188 C 195.574219 176.867188 194.949219 177.242188 194.074219 177.742188 C 192.820312 178.496094 191.320312 179.371094 188.5625 179.371094 C 185.683594 179.371094 184.183594 178.496094 183.054688 177.742188 C 182.054688 177.242188 181.425781 176.867188 180.050781 176.867188 C 178.546875 176.867188 177.921875 177.242188 177.046875 177.742188 C 175.792969 178.496094 174.289062 179.371094 171.535156 179.371094 C 168.65625 179.371094 167.152344 178.496094 166.027344 177.742188 C 165.023438 177.242188 164.398438 176.867188 163.023438 176.867188 C 161.519531 176.867188 160.894531 177.242188 160.015625 177.742188 C 158.765625 178.496094 157.261719 179.371094 154.507812 179.371094 C 151.628906 179.371094 150.125 178.496094 149 177.742188 C 147.996094 177.242188 147.371094 176.867188 145.992188 176.867188 C 144.492188 176.867188 143.863281 177.242188 142.988281 177.742188 C 141.738281 178.496094 140.234375 179.371094 137.480469 179.371094 C 134.601562 179.371094 133.097656 178.496094 131.96875 177.742188 C 130.96875 177.242188 130.34375 176.867188 128.964844 176.867188 C 127.464844 176.867188 126.835938 177.242188 125.960938 177.742188 C 124.707031 178.496094 123.207031 179.371094 120.328125 179.371094 C 117.445312 179.371094 115.945312 178.496094 114.691406 177.742188 C 113.691406 177.242188 113.0625 176.867188 111.6875 176.867188 C 110.308594 176.867188 109.183594 175.742188 109.183594 174.363281 C 107.429688 172.984375 108.558594 171.859375 109.933594 171.859375 Z M 109.933594 171.859375 " fill-opacity="1" fill-rule="nonzero"/></g><g clip-path="url(#c21255e58e)"><path fill="#000000" d="M 109.933594 183.128906 C 112.8125 183.128906 114.316406 184.003906 115.570312 184.753906 C 116.570312 185.257812 117.195312 185.632812 118.574219 185.632812 C 120.074219 185.632812 120.703125 185.257812 121.578125 184.753906 C 122.832031 184.003906 124.332031 183.128906 127.210938 183.128906 C 130.09375 183.128906 131.59375 184.003906 132.847656 184.753906 C 133.847656 185.257812 134.476562 185.632812 135.851562 185.632812 C 137.355469 185.632812 137.980469 185.257812 138.855469 184.753906 C 140.109375 184.003906 141.613281 183.128906 144.367188 183.128906 C 147.246094 183.128906 148.75 184.003906 149.875 184.753906 C 151.003906 185.257812 151.628906 185.632812 153.128906 185.632812 C 154.632812 185.632812 155.257812 185.257812 156.136719 184.753906 C 157.386719 184.003906 158.890625 183.128906 161.644531 183.128906 C 164.523438 183.128906 166.027344 184.003906 167.152344 184.753906 C 168.15625 185.257812 168.78125 185.632812 170.160156 185.632812 C 171.660156 185.632812 172.289062 185.257812 173.164062 184.753906 C 174.414062 184.003906 175.917969 183.128906 178.671875 183.128906 C 181.550781 183.128906 183.054688 184.003906 184.183594 184.753906 C 185.183594 185.257812 185.808594 185.632812 187.1875 185.632812 C 188.6875 185.632812 189.316406 185.257812 190.191406 184.753906 C 191.445312 184.003906 192.945312 183.128906 195.699219 183.128906 C 198.582031 183.128906 200.082031 184.003906 201.210938 184.753906 C 202.210938 185.257812 202.835938 185.632812 204.214844 185.632812 C 205.71875 185.632812 206.34375 185.257812 207.21875 184.753906 C 208.472656 184.003906 209.972656 183.128906 212.730469 183.128906 C 215.609375 183.128906 217.109375 184.003906 218.238281 184.753906 C 219.238281 185.257812 219.867188 185.632812 221.242188 185.632812 C 222.746094 185.632812 223.371094 185.257812 224.25 184.753906 C 225.5 184.003906 227.003906 183.128906 229.757812 183.128906 C 232.511719 183.128906 234.140625 184.003906 235.265625 184.753906 C 236.269531 185.257812 236.894531 185.632812 238.269531 185.632812 C 239.773438 185.632812 240.398438 185.257812 241.277344 184.753906 C 242.527344 184.003906 244.03125 183.128906 246.785156 183.128906 C 249.664062 183.128906 251.167969 184.003906 252.292969 184.753906 C 254.421875 185.257812 255.050781 185.632812 256.550781 185.632812 C 258.054688 185.632812 258.679688 185.257812 259.554688 184.753906 C 260.808594 184.003906 262.3125 183.128906 265.191406 183.128906 C 266.566406 183.128906 267.695312 184.253906 267.695312 185.632812 C 267.695312 187.007812 266.566406 188.136719 265.191406 188.136719 C 263.6875 188.136719 263.0625 188.511719 262.1875 189.011719 C 260.933594 189.765625 259.429688 190.640625 256.675781 190.640625 C 253.796875 190.640625 252.292969 189.765625 251.167969 189.011719 C 250.164062 188.511719 249.539062 188.136719 248.164062 188.136719 C 246.660156 188.136719 246.035156 188.511719 245.15625 189.011719 C 243.90625 189.765625 242.402344 190.640625 239.648438 190.640625 C 236.894531 190.640625 235.265625 189.765625 234.140625 189.011719 C 233.136719 188.511719 232.511719 188.136719 231.132812 188.136719 C 229.632812 188.136719 229.007812 188.511719 228.128906 189.011719 C 226.878906 189.765625 225.375 190.640625 222.621094 190.640625 C 219.742188 190.640625 218.238281 189.765625 217.109375 189.011719 C 216.109375 188.511719 215.484375 188.136719 214.105469 188.136719 C 212.605469 188.136719 211.976562 188.511719 211.101562 189.011719 C 209.847656 189.765625 208.347656 190.640625 205.59375 190.640625 C 202.710938 190.640625 201.210938 189.765625 200.082031 189.011719 C 199.082031 188.511719 198.457031 188.136719 197.078125 188.136719 C 195.574219 188.136719 194.949219 188.511719 194.074219 189.011719 C 192.820312 189.765625 191.320312 190.640625 188.5625 190.640625 C 185.683594 190.640625 184.183594 189.765625 183.054688 189.011719 C 182.054688 188.511719 181.425781 188.136719 180.050781 188.136719 C 178.546875 188.136719 177.921875 188.511719 177.046875 189.011719 C 175.792969 189.765625 174.289062 190.640625 171.535156 190.640625 C 168.65625 190.640625 167.152344 189.765625 166.027344 189.011719 C 165.023438 188.511719 164.398438 188.136719 163.023438 188.136719 C 161.519531 188.136719 160.894531 188.511719 160.015625 189.011719 C 158.765625 189.765625 157.261719 190.640625 154.507812 190.640625 C 151.628906 190.640625 150.125 189.765625 149 189.011719 C 147.996094 188.511719 147.371094 188.136719 145.992188 188.136719 C 144.492188 188.136719 143.863281 188.511719 142.988281 189.011719 C 141.738281 189.765625 140.234375 190.640625 137.480469 190.640625 C 134.601562 190.640625 133.097656 189.765625 131.96875 189.011719 C 130.96875 188.511719 130.34375 188.136719 128.964844 188.136719 C 127.464844 188.136719 126.835938 188.511719 125.960938 189.011719 C 124.707031 189.765625 123.207031 190.640625 120.328125 190.640625 C 117.445312 190.640625 115.945312 189.765625 114.691406 189.011719 C 113.691406 188.511719 113.0625 188.136719 111.6875 188.136719 C 110.308594 188.136719 109.183594 187.007812 109.183594 185.632812 C 107.429688 184.253906 108.558594 183.128906 109.933594 183.128906 Z M 109.933594 183.128906 " fill-opacity="1" fill-rule="nonzero"/></g><g fill="#000000" fill-opacity="1"><g transform="translate(110.136878, 233.947338)"><g><path d="M 6.5 -10.1875 L 7.84375 -10.1875 C 9.09375 -10.1875 10.03125 -10.429688 10.65625 -10.921875 C 11.28125 -11.421875 11.59375 -12.144531 11.59375 -13.09375 C 11.59375 -14.050781 11.332031 -14.753906 10.8125 -15.203125 C 10.289062 -15.660156 9.472656 -15.890625 8.359375 -15.890625 L 6.5 -15.890625 Z M 15.71875 -13.234375 C 15.71875 -11.171875 15.066406 -9.585938 13.765625 -8.484375 C 12.472656 -7.390625 10.632812 -6.84375 8.25 -6.84375 L 6.5 -6.84375 L 6.5 0 L 2.421875 0 L 2.421875 -19.234375 L 8.5625 -19.234375 C 10.894531 -19.234375 12.671875 -18.734375 13.890625 -17.734375 C 15.109375 -16.734375 15.71875 -15.234375 15.71875 -13.234375 Z M 15.71875 -13.234375 " fill="#000000"/></g></g></g><g fill="#000000" fill-opacity="1"><g transform="translate(128.679047, 233.947338)"><g><path d="M 19.890625 -9.640625 C 19.890625 -6.460938 19.097656 -4.015625 17.515625 -2.296875 C 15.929688 -0.585938 13.664062 0.265625 10.71875 0.265625 C 7.769531 0.265625 5.503906 -0.585938 3.921875 -2.296875 C 2.347656 -4.015625 1.5625 -6.472656 1.5625 -9.671875 C 1.5625 -12.878906 2.351562 -15.328125 3.9375 -17.015625 C 5.519531 -18.703125 7.789062 -19.546875 10.75 -19.546875 C 13.707031 -19.546875 15.96875 -18.691406 17.53125 -16.984375 C 19.101562 -15.285156 19.890625 -12.835938 19.890625 -9.640625 Z M 5.84375 -9.640625 C 5.84375 -7.492188 6.25 -5.875 7.0625 -4.78125 C 7.882812 -3.695312 9.101562 -3.15625 10.71875 -3.15625 C 13.976562 -3.15625 15.609375 -5.316406 15.609375 -9.640625 C 15.609375 -13.972656 13.988281 -16.140625 10.75 -16.140625 C 9.125 -16.140625 7.898438 -15.59375 7.078125 -14.5 C 6.253906 -13.414062 5.84375 -11.796875 5.84375 -9.640625 Z M 5.84375 -9.640625 " fill="#000000"/></g></g></g><g fill="#000000" fill-opacity="1"><g transform="translate(151.748498, 233.947338)"><g><path d="M 6.5 -10.703125 L 7.8125 -10.703125 C 9.101562 -10.703125 10.054688 -10.914062 10.671875 -11.34375 C 11.285156 -11.769531 11.59375 -12.445312 11.59375 -13.375 C 11.59375 -14.28125 11.28125 -14.925781 10.65625 -15.3125 C 10.03125 -15.695312 9.054688 -15.890625 7.734375 -15.890625 L 6.5 -15.890625 Z M 6.5 -7.390625 L 6.5 0 L 2.421875 0 L 2.421875 -19.234375 L 8.03125 -19.234375 C 10.644531 -19.234375 12.578125 -18.757812 13.828125 -17.8125 C 15.085938 -16.863281 15.71875 -15.421875 15.71875 -13.484375 C 15.71875 -12.347656 15.40625 -11.335938 14.78125 -10.453125 C 14.15625 -9.578125 13.273438 -8.890625 12.140625 -8.390625 C 15.035156 -4.054688 16.921875 -1.257812 17.796875 0 L 13.265625 0 L 8.671875 -7.390625 Z M 6.5 -7.390625 " fill="#000000"/></g></g></g><g fill="#000000" fill-opacity="1"><g transform="translate(171.159273, 233.947338)"><g><path d="M 9.84375 0 L 5.765625 0 L 5.765625 -15.84375 L 0.546875 -15.84375 L 0.546875 -19.234375 L 15.0625 -19.234375 L 15.0625 -15.84375 L 9.84375 -15.84375 Z M 9.84375 0 " fill="#000000"/></g></g></g><g fill="#000000" fill-opacity="1"><g transform="translate(188.385371, 233.947338)"><g><path d="M 21.15625 0 L 16.515625 0 L 13.90625 -10.109375 C 13.8125 -10.460938 13.644531 -11.203125 13.40625 -12.328125 C 13.175781 -13.460938 13.046875 -14.222656 13.015625 -14.609375 C 12.960938 -14.128906 12.832031 -13.363281 12.625 -12.3125 C 12.414062 -11.269531 12.253906 -10.523438 12.140625 -10.078125 L 9.546875 0 L 4.90625 0 L 0 -19.234375 L 4.015625 -19.234375 L 6.46875 -8.734375 C 6.90625 -6.796875 7.21875 -5.117188 7.40625 -3.703125 C 7.457031 -4.203125 7.578125 -4.972656 7.765625 -6.015625 C 7.953125 -7.066406 8.128906 -7.882812 8.296875 -8.46875 L 11.109375 -19.234375 L 14.96875 -19.234375 L 17.765625 -8.46875 C 17.890625 -7.976562 18.039062 -7.238281 18.21875 -6.25 C 18.40625 -5.257812 18.550781 -4.410156 18.65625 -3.703125 C 18.738281 -4.378906 18.875 -5.226562 19.0625 -6.25 C 19.257812 -7.28125 19.4375 -8.109375 19.59375 -8.734375 L 22.046875 -19.234375 L 26.0625 -19.234375 Z M 21.15625 0 " fill="#000000"/></g></g></g><g fill="#000000" fill-opacity="1"><g transform="translate(216.061074, 233.947338)"><g><path d="M 13.5 0 L 2.421875 0 L 2.421875 -19.234375 L 13.5 -19.234375 L 13.5 -15.890625 L 6.5 -15.890625 L 6.5 -11.671875 L 13.015625 -11.671875 L 13.015625 -8.328125 L 6.5 -8.328125 L 6.5 -3.375 L 13.5 -3.375 Z M 13.5 0 " fill="#000000"/></g></g></g><g fill="#000000" fill-opacity="1"><g transform="translate(232.77391, 233.947338)"><g><path d="M 2.421875 0 L 2.421875 -19.234375 L 6.5 -19.234375 L 6.5 -3.375 L 14.3125 -3.375 L 14.3125 0 Z M 2.421875 0 " fill="#000000"/></g></g></g><g fill="#000000" fill-opacity="1"><g transform="translate(249.618353, 233.947338)"><g><path d="M 2.421875 0 L 2.421875 -19.234375 L 6.5 -19.234375 L 6.5 -3.375 L 14.3125 -3.375 L 14.3125 0 Z M 2.421875 0 " fill="#000000"/></g></g></g></svg>